<svg xmlns="http://www.w3.org/2000/svg" width="256" height="256" viewBox="0 0 100 100"><rect width="100" height="100" rx="20" fill="#1f1f1f"></rect><path d="M24.86 52.12L24.86 52.12Q18.23 50.21 15.21 47.44Q12.19 44.66 12.19 40.57L12.19 40.57Q12.19 35.95 15.88 32.93Q19.57 29.91 25.48 29.91L25.48 29.91Q29.51 29.91 32.66 31.47Q35.82 33.03 37.55 35.77Q39.28 38.51 39.28 41.76L39.28 41.76L34.10 41.76Q34.10 38.21 31.85 36.18Q29.59 34.16 25.48 34.16L25.48 34.16Q21.67 34.16 19.53 35.83Q17.40 37.51 17.40 40.49L17.40 40.49Q17.40 42.88 19.43 44.53Q21.45 46.19 26.33 47.56Q31.20 48.93 33.95 50.58Q36.71 52.23 38.04 54.43Q39.37 56.63 39.37 59.61L39.37 59.61Q39.37 64.37 35.66 67.23Q31.95 70.09 25.75 70.09L25.75 70.09Q21.72 70.09 18.23 68.54Q14.74 67.00 12.85 64.31Q10.95 61.63 10.95 58.22L10.95 58.22L16.14 58.22Q16.14 61.76 18.75 63.82Q21.37 65.87 25.75 65.87L25.75 65.87Q29.83 65.87 32.01 64.21Q34.18 62.54 34.18 59.67Q34.18 56.79 32.17 55.22Q30.15 53.65 24.86 52.12ZM48.23 30.45L54.40 57.22L55.16 62.38L56.26 57.73L63.99 30.45L68.34 30.45L75.89 57.73L76.96 62.46L77.80 57.20L83.86 30.45L89.05 30.45L79.57 69.55L74.87 69.55L66.81 41.06L66.19 38.08L65.58 41.06L57.22 69.55L52.52 69.55L43.07 30.45L48.23 30.45Z" fill="#fff"></path></svg>