<?xml version="1.0" standalone="no"?>
<!DOCTYPE svg PUBLIC "-//W3C//DTD SVG 20010904//EN"
 "http://www.w3.org/TR/2001/REC-SVG-20010904/DTD/svg10.dtd">
<svg version="1.0" xmlns="http://www.w3.org/2000/svg"
 width="200.000000pt" height="200.000000pt" viewBox="0 0 200.000000 200.000000"
 preserveAspectRatio="xMidYMid meet">
<metadata>
Created by potrace 1.14, written by Peter Selinger 2001-2017
</metadata>
<g transform="translate(0.000000,200.000000) scale(0.100000,-0.100000)"
fill="#000000" stroke="none">
<path d="M215 1991 c-82 -21 -145 -72 -186 -151 l-24 -45 0 -795 0 -795 27
-51 c30 -57 80 -105 136 -132 34 -16 96 -17 832 -17 740 0 798 1 833 18 55 26
112 81 139 135 l23 47 0 795 0 795 -27 50 c-31 59 -67 94 -128 126 l-45 24
-775 2 c-426 1 -788 -2 -805 -6z m995 -321 c36 -12 92 -36 125 -54 l60 -33 60
24 c176 70 373 96 442 60 39 -21 70 -59 78 -97 17 -76 -64 -223 -198 -366
l-77 -82 -3 -138 c-3 -119 -7 -149 -30 -212 -38 -110 -83 -178 -177 -272 -138
-139 -293 -203 -490 -204 -124 0 -229 26 -329 80 l-63 35 -98 -35 c-290 -103
-464 -83 -486 56 -13 76 52 196 192 353 l84 94 0 109 c0 123 22 226 66 314 90
179 240 309 424 367 93 29 102 30 235 26 90 -2 136 -8 185 -25z"/>
<path d="M1691 1575 c-56 -13 -190 -53 -199 -60 -2 -2 20 -32 48 -67 28 -34
68 -98 90 -140 l39 -77 52 57 c91 99 159 207 159 251 0 49 -69 62 -189 36z"/>
<path d="M867 1495 c-168 -46 -308 -182 -358 -346 -35 -116 -28 -119 81 -36
l95 72 -50 3 c-57 4 -75 15 -75 48 0 45 31 53 177 47 112 -5 135 -9 149 -24
14 -16 15 -24 6 -45 -7 -13 -12 -29 -12 -34 0 -6 73 -46 161 -91 115 -57 165
-77 172 -70 19 19 56 12 72 -13 14 -22 15 -28 1 -60 -8 -20 -12 -36 -8 -36 6
0 198 144 225 169 13 13 -31 135 -71 197 -68 105 -181 187 -303 219 -66 18
-197 18 -262 0z"/>
<path d="M821 1047 c-28 -67 -59 -94 -90 -78 -29 16 -34 45 -16 81 9 18 15 34
12 36 -5 5 -208 -148 -226 -170 -9 -11 -7 -28 9 -77 64 -189 219 -320 413
-351 216 -33 440 82 535 275 33 66 61 171 50 182 -3 4 -47 -24 -98 -62 l-91
-68 51 -5 c51 -6 70 -19 70 -52 0 -41 -25 -48 -166 -48 -122 0 -136 2 -155 21
-23 23 -23 26 32 152 20 48 36 87 33 87 -2 0 -76 -36 -164 -80 -88 -44 -162
-80 -165 -80 -2 0 -6 66 -7 148 l-3 147 -24 -58z"/>
<path d="M270 699 c-75 -86 -138 -183 -146 -226 -9 -48 12 -63 87 -63 56 0
212 35 276 62 l33 14 -35 34 c-43 42 -107 139 -130 198 -10 23 -20 42 -24 42
-4 0 -31 -28 -61 -61z"/>
</g>
</svg>
