<svg version="1" xmlns="http://www.w3.org/2000/svg" width="933.333" height="933.333" viewBox="0 0 700.000000 700.000000"><path d="M125.5.7C107.6 3 94.2 6.9 79.4 14 39.8 32.7 12.9 67.3 2.8 112.1L.5 122.5v455l2.3 10.2c12.5 56.5 53 97 109.5 109.5l10.2 2.3h455l10.2-2.3c56.5-12.5 97-53 109.5-109.5l2.3-10.2v-455l-2.3-10.2c-12.5-56.6-52.1-96.4-109-109.5L578.5.6l-225-.2C229.8.3 127.2.5 125.5.7zm76.1 210.8c40.8 7.4 69.3 36.1 73 73.5l.7 7h-36.2l-.6-4.8c-2.1-15.7-5.4-23.2-13.9-31.8-6.7-6.7-15.1-11.3-25.6-14.1-8.9-2.3-31.8-2.3-41.3 0-23.9 5.9-36.9 22.2-35.5 44.2 1.4 22.3 17.6 34 67.3 49 25.3 7.7 44.7 16.3 56.5 25.2 8.2 6.1 18 17 21.8 24.2 7.1 13.1 9.6 34.9 5.8 50.4-5.9 24.8-27.8 44.6-57.8 52.2-41.8 10.5-89.3.3-115.6-24.9-13.6-12.9-21.6-29-22.9-45.9l-.6-7.7h36l.7 6c1.4 12.6 5.9 21.3 15.3 30 7 6.5 15.8 11.2 26.8 14.2 10.8 2.9 37.3 3.2 47.9.5 23.1-5.8 35.6-20.3 35.6-41.3 0-24.3-12.8-35.7-55.5-49.5-26.8-8.6-37.6-12.5-48.4-17.5-25.9-12.1-42.2-28.9-47.7-49.4-2.3-8.6-2.3-25.2-.1-34 3.9-14.8 14-29.3 27.5-39.2 21.1-15.6 55-22 86.8-16.3zm157.7 95.7c13 56.5 22.5 100.1 23.7 108.8 3.1 21.4 3 21.3 6.9 4.8 2.5-11.1 45.9-166 56.2-201.1l2-6.8 15.2.3 15.2.3 26.2 94.5c14.4 52 27.9 102 29.9 111.2 2.1 9.2 3.9 16.6 4.1 16.5.1-.2 1.6-8.6 3.2-18.8 2.2-13.3 32.8-151.7 44.6-201.7.5-2.2.7-2.2 18.6-2.2h18.2l-.6 2.7c-.7 3.5-64.6 267.2-65.3 269.5-.5 1.6-2.2 1.8-16.9 1.8s-16.4-.2-16.9-1.8c-6.8-22.6-56.9-202.3-58.2-208.5-.9-4.8-1.8-8.6-2-8.4-.2.1-1.2 4.5-2.4 9.7-1.1 5.2-15.2 54.4-31.3 109.3L400.5 487l-16.5-.2-16.4-.3-32.2-133c-17.7-73.2-32.5-134.7-32.9-136.8l-.7-3.7h35.8l21.7 94.2z"/></svg>